<svg width="32" height="33" viewBox="0 0 32 33" fill="none" xmlns="http://www.w3.org/2000/svg">
<path d="M16.0153 12.4401L27.4585 0.98156C28.5006 -0.0605853 30.1814 -0.0605853 31.2184 0.98156C32.2605 2.02371 32.2605 3.70442 31.2184 4.74146L19.7752 16.2153L31.2184 27.6584C32.2605 28.7006 32.2605 30.3813 31.2184 31.4183C30.1762 32.4605 28.4955 32.4605 27.4585 31.4183L16.0153 19.9752L4.54151 31.4183C3.49936 32.4605 1.81865 32.4605 0.781609 31.4183C-0.260536 30.3762 -0.260536 28.6955 0.781609 27.6584L12.2248 16.2153L0.786718 4.74657C-0.260536 3.70442 -0.260536 2.02371 0.781609 0.986669C1.82375 -0.0503678 3.50447 -0.0554764 4.54151 0.986669L16.0153 12.4298V12.4401Z" fill="black"/>
</svg>
