<svg width="30" height="27" viewBox="0 0 30 27" fill="none" xmlns="http://www.w3.org/2000/svg">
<path d="M14.68 0.559998C11.6758 0.559998 9.24 2.99584 9.24 6C9.24 7.15136 9.59944 8.21689 10.21 9.09625V9.0975C10.2158 9.10326 10.2199 9.11049 10.225 9.11625C10.3466 9.28905 10.4786 9.45381 10.6187 9.61125C12.0082 11.6746 10.7692 14.6989 8.16375 15.0912C8.16375 15.0912 6.98901 15.2862 6.47125 15.2862C6.43349 15.2862 6.39712 15.28 6.36 15.28C3.35584 15.28 0.919998 17.7158 0.919998 20.72C0.919998 23.7242 3.35584 26.16 6.36 26.16C8.3056 26.16 10.0068 25.1354 10.9687 23.6H10.9725L10.98 23.5812C11.2776 23.1012 11.5018 22.5738 11.6387 22.01L11.66 21.96C12.9016 19 17.0971 19 18.3387 21.96L18.3612 22.0125C18.4982 22.5744 18.7212 23.1007 19.0175 23.5787L19.0275 23.6H19.0312C19.9932 25.1354 21.6944 26.16 23.64 26.16C26.6442 26.16 29.08 23.7242 29.08 20.72C29.08 17.7158 26.6442 15.28 23.64 15.28C22.8758 15.28 21.3325 15.0187 21.3325 15.0187C18.5619 14.5733 17.3356 11.2861 19.1212 9.13375C19.7484 8.24799 20.12 7.168 20.12 6C20.12 2.99584 17.6842 0.559998 14.68 0.559998ZM14.68 2.48C16.6205 2.48 18.2 4.05888 18.2 6C18.2 7.94112 16.6205 9.52 14.68 9.52C12.7395 9.52 11.16 7.94112 11.16 6C11.16 4.05888 12.7395 2.48 14.68 2.48ZM14.68 3.76C13.4448 3.76 12.44 4.7648 12.44 6C12.44 7.2352 13.4448 8.24 14.68 8.24C15.9152 8.24 16.92 7.2352 16.92 6C16.92 4.7648 15.9152 3.76 14.68 3.76ZM14.68 5.04C15.2099 5.04 15.64 5.47008 15.64 6C15.64 6.52992 15.2099 6.96 14.68 6.96C14.1501 6.96 13.72 6.52992 13.72 6C13.72 5.47008 14.1501 5.04 14.68 5.04ZM14.68 13.36C15.5638 13.36 16.28 14.0762 16.28 14.96C16.28 15.8438 15.5638 16.56 14.68 16.56C13.7962 16.56 13.08 15.8438 13.08 14.96C13.08 14.0762 13.7962 13.36 14.68 13.36ZM6.36 17.2C8.30048 17.2 9.88 18.7795 9.88 20.72C9.88 22.6605 8.30048 24.24 6.36 24.24C4.41952 24.24 2.84 22.6605 2.84 20.72C2.84 18.7795 4.41952 17.2 6.36 17.2ZM23.64 17.2C25.5805 17.2 27.16 18.7795 27.16 20.72C27.16 22.6605 25.5805 24.24 23.64 24.24C21.6995 24.24 20.12 22.6605 20.12 20.72C20.12 18.7795 21.6995 17.2 23.64 17.2ZM6.36 18.48C5.1248 18.48 4.12 19.4848 4.12 20.72C4.12 21.9552 5.1248 22.96 6.36 22.96C7.5952 22.96 8.6 21.9552 8.6 20.72C8.6 19.4848 7.5952 18.48 6.36 18.48ZM23.64 18.48C22.4048 18.48 21.4 19.4848 21.4 20.72C21.4 21.9552 22.4048 22.96 23.64 22.96C24.8752 22.96 25.88 21.9552 25.88 20.72C25.88 19.4848 24.8752 18.48 23.64 18.48ZM6.36 19.76C6.88992 19.76 7.32 20.1901 7.32 20.72C7.32 21.2499 6.88992 21.68 6.36 21.68C5.83008 21.68 5.4 21.2499 5.4 20.72C5.4 20.1901 5.83008 19.76 6.36 19.76ZM23.64 19.76C24.1699 19.76 24.6 20.1901 24.6 20.72C24.6 21.2499 24.1699 21.68 23.64 21.68C23.1101 21.68 22.68 21.2499 22.68 20.72C22.68 20.1901 23.1101 19.76 23.64 19.76Z" fill="black"/>
</svg>
